<?xml version="1.0" encoding="UTF-8"?>
<svg id="Capa_2" data-name="Capa 2" xmlns="http://www.w3.org/2000/svg" xmlns:xlink="http://www.w3.org/1999/xlink" viewBox="0 0 761.01 577.27">
  <defs>
    <style>
      .cls-1 {
        fill: #FFFFFF;
      }

      .cls-2 {
        fill: #FFFFFF;
      }

      .cls-3 {
        fill: #FFFFFF;
      }
    </style>
    <linearGradient id="a" x1="189.93" y1="185.85" x2="568.58" y2="185.85" gradientUnits="userSpaceOnUse">
      <stop offset="0" stop-color="#e83235"/>
      <stop offset=".44" stop-color="#eb3c2f"/>
      <stop offset=".49" stop-color="#ed4529"/>
      <stop offset=".64" stop-color="#f45e1a"/>
      <stop offset=".78" stop-color="#f86d11"/>
      <stop offset=".9" stop-color="#f9720e"/>
    </linearGradient>
  </defs>
  <g id="Capa_1-2" data-name="Capa 1">
    <path class="cls-1" d="M554.97,182.37c-11.97-42.59-30.16-83.18-51.22-114.29C475.29,26.01,443.44,3.21,409.1,.31c-32.66-2.75-82.32,11.28-133.37,93.81-35.91,58.07-65.3,138.42-84.99,232.37-4.25,20.27,8.74,40.14,29.01,44.39,2.59,.55,5.18,.81,7.73,.81,17.37,0,32.96-12.14,36.66-29.82,17.68-84.3,44.44-158.28,75.38-208.3,29.63-47.91,53.72-59.33,63.26-58.52,11.46,.96,33.27,20.48,54.1,61.03,15.36,29.91,27.47,65.8,33.23,98.47,5.86,33.21,2.97,50.89,.9,56.4-.33,.09-.59,.08-.94,.07-1.66-.07-6.59-.79-16.61-6.09-21.36-11.3-50.93-35.09-91.71-69.81-15.77-13.42-39.44-11.52-52.87,4.25-13.42,15.77-11.52,39.44,4.25,52.87,45.82,38.99,77.73,64.42,105.27,78.99,17.59,9.3,33.52,14.12,48.67,14.73,18.14,.73,34.97-4.51,50.03-15.54,20.45-14.98,31.04-41.29,31.47-78.21,.31-26.03-4.39-57.09-13.6-89.84Zm-33.5,145.4c-25.22,18.48-51.79,8.1-69.59-1.32-25.31-13.38-55.94-37.86-100.3-75.62-4.2-3.58-4.71-9.89-1.13-14.1,3.58-4.2,9.89-4.71,14.09-1.13,84.97,72.32,119.66,94.68,145.11,76.04,15.89-11.64,15.98-60.8,.22-116.89-10.48-37.26-26.82-73.9-44.83-100.51-19.74-29.18-40.26-45.45-59.32-47.06-13.11-1.1-27.29,4.18-42.12,15.72-15.82,12.31-31.58,31.06-46.85,55.74-33.04,53.43-60.32,128.51-78.9,217.13-.99,4.71-5.14,7.95-9.78,7.95-.68,0-1.37-.07-2.06-.22-5.4-1.13-8.87-6.43-7.73-11.84,19.04-90.86,47.21-168.16,81.46-223.54,16.52-26.71,33.88-47.23,51.58-61,18.93-14.73,37.8-21.41,56.08-19.87,53.89,4.55,99.96,84.69,121.72,162.09,8.5,30.26,12.85,58.64,12.58,82.08-.33,27.8-7.13,46.76-20.23,56.35Z"/>
    <g>
      <g>
        <path class="cls-3" d="M435.23,516.96c.37-33.67,25.9-59.57,59.2-59.57,10.54,0,20.54,2.59,29.42,7.21,2.22,1.11,3.88,3.51,3.88,6.1,0,3.89-3.15,7.03-7.03,7.03-1.11,0-2.22-.18-3.14-.74-6.48-3.33-13.88-5-22.75-5-25.16,0-43.1,18.87-43.29,45.32,.19,26.46,18.13,45.33,43.29,45.33,8.88,0,16.28-1.67,22.75-5,.92-.56,2.04-.74,3.14-.74,3.88,0,7.03,3.14,7.03,7.03,0,2.59-1.67,4.99-3.88,6.1-8.88,4.62-18.87,7.21-29.42,7.21-33.48,0-59.2-26.27-59.2-60.31Z"/>
        <path class="cls-3" d="M630.96,565.24c.74,1.11,1.11,2.59,1.11,4.07,0,4.44-3.51,7.96-7.77,7.96-2.78,0-5.37-1.48-6.66-3.7l-28.49-45.69h-25.53v41.25c0,4.44-3.7,8.14-8.14,8.14s-8.14-3.7-8.14-8.14v-101.56c0-4.81,2.77-7.58,7.58-7.58h38.48c23.12,0,37.92,13.13,37.92,33.85,0,16.65-9.25,28.3-24.61,32.37l24.24,39.04Zm-67.34-90.46v38.48h29.97c14.06,0,21.46-6.84,21.46-19.42s-7.4-19.24-21.46-19.24l-29.97,.18Z"/>
        <path class="cls-3" d="M653.71,569.13v-103.6c0-4.44,3.7-8.14,8.14-8.14,2.78,0,5.18,1.48,6.66,3.51l38.85,56.42,38.85-56.42c1.48-2.04,3.88-3.51,6.66-3.51,4.44,0,8.14,3.7,8.14,8.14v103.6c0,4.44-3.7,8.14-8.14,8.14s-8.14-3.7-8.14-8.14v-79.36l-32,46.43c-3.14,4.62-7.58,4.62-10.73,0l-32-46.43v79.36c0,4.44-3.7,8.14-8.14,8.14s-8.14-3.7-8.14-8.14Z"/>
      </g>
      <g>
        <path class="cls-2" d="M0,569.27c0-1.11,.19-2.22,.56-3.15l45.59-103.96c1.3-2.96,4.45-5.37,8.15-5.37s6.86,2.22,8.15,5.19l45.77,104.15c.37,.93,.74,2.04,.74,3.15,0,4.26-3.34,7.6-7.6,7.6-2.96,0-5.75-1.85-6.86-4.45l-13.53-30.02H27.98l-13.53,30.02c-1.11,2.59-3.89,4.45-6.86,4.45-4.26,0-7.6-3.34-7.6-7.6Zm34.1-41.7h40.77l-20.39-48.74-20.38,48.74Z"/>
        <path class="cls-2" d="M123.42,569.27v-73.02c0-4.08,3.34-7.6,7.41-7.6s7.6,3.52,7.6,7.6v3.89c3.89-4.82,10.01-8.15,17.05-9.27,4.08-.56,7.78,2.59,7.78,6.67,0,3.71-3.34,6.12-7.04,6.67-7.97,1.3-17.79,4.82-17.79,13.9v51.15c0,4.08-3.33,7.6-7.41,7.6s-7.6-3.52-7.6-7.6Z"/>
        <path class="cls-2" d="M177.35,569.27v-104.89c0-4.08,3.34-7.6,7.6-7.6s7.41,3.52,7.41,7.6v37.8c7.97-9.27,17.42-13.71,28.54-13.71,20.57,0,41.7,16.12,41.7,43.92,0,25.02-18.16,44.48-41.7,44.48-11.3,0-20.94-4.45-28.54-13.16v5.56c0,4.08-3.33,7.6-7.41,7.6s-7.6-3.52-7.6-7.6Zm70.24-36.88c0-17.79-11.86-29.84-28.91-29.84-11.12,0-21.5,6.86-26.32,17.42v25.2c5,10.56,15.38,17.61,26.32,17.61,17.61,0,28.91-11.86,28.91-30.39Z"/>
        <path class="cls-2" d="M275.2,467.35c0-5.93,4.63-10.56,10.56-10.56s10.38,4.63,10.38,10.56-4.63,10.56-10.38,10.56-10.56-4.63-10.56-10.56Zm2.96,101.93v-73.02c0-4.08,3.34-7.6,7.6-7.6s7.41,3.52,7.41,7.6v73.02c0,4.08-3.33,7.6-7.6,7.6s-7.41-3.52-7.41-7.6Z"/>
        <path class="cls-2" d="M347.47,575.58c-9.08,2.04-16.31,1.48-21.13-1.85-5.56-4.26-8.15-11.3-8.15-21.68v-46.7h-5c-3.89,0-7.04-3.15-7.04-7.04s3.15-7.04,7.04-7.04h5v-13.9c0-4.08,3.34-7.6,7.6-7.6s7.41,3.52,7.41,7.6v13.9h7.6c3.89,0,7.04,3.15,7.04,7.04s-3.15,7.04-7.04,7.04h-7.6v45.77c0,4.82,.93,8.15,2.78,9.64,2.04,1.85,5.19,2.04,8.89,1.3,4.08-.74,7.97,2.59,7.97,6.86,0,3.15-2.41,5.93-5.37,6.67Z"/>
        <path class="cls-2" d="M401.21,575.58c-9.08,2.04-16.31,1.48-21.13-1.85-5.56-4.26-8.15-11.3-8.15-21.68v-46.7h-5c-3.89,0-7.04-3.15-7.04-7.04s3.15-7.04,7.04-7.04h5v-13.9c0-4.08,3.34-7.6,7.6-7.6s7.41,3.52,7.41,7.6v13.9h7.6c3.89,0,7.04,3.15,7.04,7.04s-3.15,7.04-7.04,7.04h-7.6v45.77c0,4.82,.93,8.15,2.78,9.64,2.04,1.85,5.19,2.04,8.89,1.3,4.08-.74,7.97,2.59,7.97,6.86,0,3.15-2.41,5.93-5.37,6.67Z"/>
      </g>
    </g>
  </g>
</svg>
