<?xml version="1.0" encoding="UTF-8"?>
<svg version="1.1" xmlns="http://www.w3.org/2000/svg" width="512" height="512">
<path d="M0 0 C1.67952001 -0.00462209 3.35903597 -0.0109837 5.03854364 -0.01890898 C9.60243999 -0.03544444 14.16599726 -0.02742892 18.72989404 -0.0149641 C23.67119356 -0.00585117 28.61243792 -0.01991363 33.5537262 -0.03088379 C43.21092397 -0.04860387 52.8679969 -0.04485921 62.52519942 -0.03323323 C70.37322923 -0.02417815 78.2212242 -0.02298384 86.06925774 -0.02732849 C87.18866593 -0.02794142 88.30807412 -0.02855436 89.46140377 -0.02918586 C91.73575685 -0.03046482 94.01010992 -0.03176167 96.28446298 -0.03307623 C117.57188032 -0.04446171 138.85922856 -0.0313978 160.14663457 -0.00987476 C178.4077223 0.00801645 196.66870838 0.00487151 214.92979431 -0.0135498 C236.15804019 -0.0349544 257.38622575 -0.04338646 278.61448091 -0.03110075 C280.87744199 -0.02982659 283.14040308 -0.0285691 285.40336418 -0.02732849 C286.51668835 -0.02671139 287.63001252 -0.02609429 288.77707379 -0.02545848 C296.6192507 -0.02200601 304.46138928 -0.02783128 312.30356026 -0.0372467 C321.85462863 -0.04846249 331.40556549 -0.04543448 340.95661879 -0.02412373 C345.82856772 -0.01361114 350.70029734 -0.00949545 355.57224464 -0.02272034 C360.03227457 -0.03464423 364.49188197 -0.02808183 368.95187359 -0.00681013 C370.56454806 -0.00234434 372.17725827 -0.00460983 373.78990973 -0.01431328 C383.61837906 -0.06891386 390.65790407 0.21027625 398.38414001 6.88293457 C405.68743041 15.40344003 406.44877026 22.65751232 405.63414001 33.50793457 C403.76340472 40.24868185 399.2609097 44.36986622 393.94664001 48.69543457 C388.66092504 51.58761824 383.23709352 52.20618703 377.29820251 52.89465332 C361.9783344 54.73777211 350.13572801 60.38796753 340.19664001 72.35168457 C332.23623982 83.33703684 329.30957873 96.10043094 330.63414001 109.50793457 C333.49967337 123.17313932 340.02654385 135.32484999 351.53257751 143.58996582 C360.60254619 149.1275431 368.82577633 151.38673358 379.25914001 152.44543457 C388.3857154 153.3803762 394.46796494 155.31406365 400.63414001 162.50793457 C406.21671271 170.26150775 406.32941406 177.24727059 405.63414001 186.50793457 C403.43146378 194.44475164 397.48063576 199.34050238 390.63414001 203.50793457 C387.21338532 204.64818613 384.59648832 204.63686438 380.98744774 204.64215565 C380.305288 204.64450788 379.62312827 204.64686011 378.92029703 204.64928362 C376.61765067 204.65597945 374.31506068 204.65551522 372.0124054 204.65510559 C370.35138698 204.6584039 368.69036937 204.6621294 367.02935278 204.66624707 C362.45131267 204.67627981 357.87328566 204.67998595 353.29523611 204.68263638 C348.3623966 204.68653593 343.4295675 204.69611483 338.49673462 204.70484924 C326.57343666 204.72462856 314.65013783 204.73468393 302.72682756 204.74357703 C297.11046794 204.74795949 291.49410927 204.75332659 285.8777504 204.7585659 C267.20257704 204.77558333 248.52740427 204.79007536 229.85222435 204.79731464 C225.00381342 204.79922453 220.15540249 204.80114486 215.30699158 204.80310059 C214.10194838 204.80358433 212.89690518 204.80406807 211.65534551 204.80456647 C192.15424782 204.81285862 172.65321164 204.83817947 153.15214078 204.87068126 C133.12475271 204.90378751 113.09739584 204.92176682 93.06998026 204.92495888 C81.82801607 204.9271212 70.58614144 204.93582857 59.34420395 204.96142006 C49.7648923 204.98317616 40.18569195 204.99115355 30.60635839 204.98145328 C25.72325194 204.97692215 20.84037487 204.97872521 15.95730019 204.99821472 C11.47590951 205.01594541 6.99491386 205.01476914 2.51351841 204.99931743 C0.90294803 204.99695622 -0.70765043 205.00118652 -2.31817813 205.01314608 C-16.4674662 205.11160196 -30.09711062 202.93201551 -43.17835999 197.25793457 C-43.87719299 196.96128906 -44.576026 196.66464355 -45.29603577 196.35900879 C-51.84229009 193.47709504 -57.66025242 189.8213417 -63.36585999 185.50793457 C-64.3107428 184.79637207 -65.25562561 184.08480957 -66.22914124 183.35168457 C-82.57969831 170.50643365 -93.70028923 154.07695834 -100.36585999 134.50793457 C-100.59031799 133.87291016 -100.814776 133.23788574 -101.04603577 132.58361816 C-107.47867349 113.61153315 -107.06736224 89.35383177 -100.36585999 70.50793457 C-100.11916565 69.7989502 -99.87247131 69.08996582 -99.61830139 68.35949707 C-96.10783946 58.53278965 -91.68654988 49.86869789 -85.36585999 41.50793457 C-84.65429749 40.56305176 -83.94273499 39.61816895 -83.20960999 38.64465332 C-72.52315227 25.04199676 -58.94402841 14.36867542 -42.99085999 7.63293457 C-42.38105286 7.37109375 -41.77124573 7.10925293 -41.14295959 6.83947754 C-27.72322475 1.53419882 -14.28624802 -0.08714119 0 0 Z " fill="#B5DD63" transform="translate(105.36585998535156,153.4920654296875)"/>
<path d="M0 0 C1.67952001 -0.00462209 3.35903597 -0.0109837 5.03854364 -0.01890898 C9.60243999 -0.03544444 14.16599726 -0.02742892 18.72989404 -0.0149641 C23.67119356 -0.00585117 28.61243792 -0.01991363 33.5537262 -0.03088379 C43.21092397 -0.04860387 52.8679969 -0.04485921 62.52519942 -0.03323323 C70.37322923 -0.02417815 78.2212242 -0.02298384 86.06925774 -0.02732849 C87.18866593 -0.02794142 88.30807412 -0.02855436 89.46140377 -0.02918586 C91.73575685 -0.03046482 94.01010992 -0.03176167 96.28446298 -0.03307623 C117.57188032 -0.04446171 138.85922856 -0.0313978 160.14663457 -0.00987476 C178.4077223 0.00801645 196.66870838 0.00487151 214.92979431 -0.0135498 C236.15804019 -0.0349544 257.38622575 -0.04338646 278.61448091 -0.03110075 C280.87744199 -0.02982659 283.14040308 -0.0285691 285.40336418 -0.02732849 C286.51668835 -0.02671139 287.63001252 -0.02609429 288.77707379 -0.02545848 C296.6192507 -0.02200601 304.46138928 -0.02783128 312.30356026 -0.0372467 C321.85462863 -0.04846249 331.40556549 -0.04543448 340.95661879 -0.02412373 C345.82856772 -0.01361114 350.70029734 -0.00949545 355.57224464 -0.02272034 C360.03227457 -0.03464423 364.49188197 -0.02808183 368.95187359 -0.00681013 C370.56454806 -0.00234434 372.17725827 -0.00460983 373.78990973 -0.01431328 C383.61837906 -0.06891386 390.65790407 0.21027625 398.38414001 6.88293457 C405.68743041 15.40344003 406.44877026 22.65751232 405.63414001 33.50793457 C403.76340472 40.24868185 399.2609097 44.36986622 393.94664001 48.69543457 C388.66092504 51.58761824 383.23709352 52.20618703 377.29820251 52.89465332 C361.9783344 54.73777211 350.13572801 60.38796753 340.19664001 72.35168457 C332.23623982 83.33703684 329.30957873 96.10043094 330.63414001 109.50793457 C333.49967337 123.17313932 340.02654385 135.32484999 351.53257751 143.58996582 C360.60254619 149.1275431 368.82577633 151.38673358 379.25914001 152.44543457 C388.3857154 153.3803762 394.46796494 155.31406365 400.63414001 162.50793457 C406.21671271 170.26150775 406.32941406 177.24727059 405.63414001 186.50793457 C403.43146378 194.44475164 397.48063576 199.34050238 390.63414001 203.50793457 C373.30630461 209.2838797 350.53178682 202.22807164 334.74986267 194.59680176 C326.24114146 190.26255234 318.72285347 184.9170516 311.63414001 178.50793457 C310.71890564 177.68680176 309.80367126 176.86566895 308.86070251 176.01965332 C298.05752742 165.80656762 289.91657129 153.4153525 284.63414001 139.50793457 C284.3605365 138.81119629 284.08693298 138.11445801 283.80503845 137.39660645 C274.61276041 113.20858282 275.86253878 84.754597 286.38804626 61.21887207 C286.7992572 60.3242627 287.21046814 59.42965332 287.63414001 58.50793457 C289.11914001 55.04293457 289.11914001 55.04293457 290.63414001 51.50793457 C164.57414001 51.50793457 38.51414001 51.50793457 -91.36585999 51.50793457 C-88.11209987 45.65116636 -85.39992081 40.85239353 -81.11585999 35.94543457 C-80.63407288 35.38880127 -80.15228577 34.83216797 -79.65589905 34.25866699 C-69.52619181 22.73804985 -57.14846402 13.60195244 -42.99085999 7.63293457 C-42.38113342 7.37117432 -41.77140686 7.10941406 -41.14320374 6.83972168 C-27.7239392 1.53360022 -14.28600429 -0.0871397 0 0 Z " fill="#B6DE64" transform="translate(105.36585998535156,153.4920654296875)"/>
<path d="M0 0 C48.45995696 -0.36631039 96.9197739 -0.6481984 145.3808433 -0.81704527 C151.10350717 -0.83705631 156.82616832 -0.85776549 162.54882812 -0.87890625 C163.68809524 -0.88310322 164.82736236 -0.88730018 166.00115272 -0.89162433 C184.44247015 -0.96122514 202.88298866 -1.08736556 221.3238323 -1.23444474 C240.24928807 -1.38412888 259.17432577 -1.47295253 278.10034919 -1.50541592 C289.77703751 -1.52735895 301.45146774 -1.59662596 313.12746081 -1.72666347 C321.13683862 -1.81131524 329.14505116 -1.83678616 337.15484372 -1.81602204 C341.77548617 -1.80578248 346.39218774 -1.82133723 351.01212692 -1.9072876 C380.21253637 -2.42416277 380.21253637 -2.42416277 386.71111298 3.47537231 C389.47241472 6.72793498 391.32772126 10.15352649 393.02396727 14.04950142 C400.64189637 29.27313009 422.1275536 39.51455781 437.484375 45.31640625 C444.5426777 47.60444457 451.65576948 48.99430357 459 50 C459 50.33 459 50.66 459 51 C410.11527154 51.09163183 361.23055178 51.16207745 312.34575427 51.20426132 C306.56945127 51.20926392 300.79314845 51.21444123 295.0168457 51.21972656 C293.86692768 51.2207758 292.71700965 51.22182505 291.53224563 51.22290608 C272.93304075 51.24029319 254.33388551 51.27182153 235.73471005 51.30861118 C216.6385515 51.34606778 197.54241888 51.36824583 178.44622511 51.37635398 C166.6706688 51.38183196 154.89525285 51.39910984 143.11973976 51.43166587 C135.03580572 51.45287203 126.95194382 51.45918627 118.867984 51.45400551 C114.20969386 51.45145321 109.55164832 51.45525971 104.8934021 51.4768219 C100.61728995 51.4964693 96.34158395 51.49715384 92.06545203 51.48359558 C90.52948525 51.48192306 88.99349178 51.48684221 87.45757652 51.49953273 C73.53956791 51.60771699 60.04367585 49.32645377 47.1875 43.75 C46.48866699 43.45335449 45.78983398 43.15670898 45.06982422 42.85107422 C38.5235699 39.96916047 32.70560757 36.31340713 27 32 C26.05511719 31.2884375 25.11023438 30.576875 24.13671875 29.84375 C14.68997322 22.42224037 5.99412449 13.50417315 0 3 C0 2.01 0 1.02 0 0 Z " fill="#A9CC54" transform="translate(15,307)"/>
<path d="M0 0 C1.73949883 0.00113916 1.73949883 0.00113916 3.51413906 0.00230134 C4.16140549 -0.00000635 4.80867193 -0.00231404 5.4755525 -0.00469166 C7.66544074 -0.01002613 9.85504056 -0.00097934 12.04491413 0.00788796 C13.62231468 0.0070166 15.19971495 0.00526689 16.77711368 0.00270963 C21.12803288 -0.00178151 25.4788544 0.00626389 29.82976115 0.01626575 C34.51552306 0.02487264 39.2012791 0.02198205 43.88704669 0.0204612 C52.01088132 0.01941059 60.13468391 0.0257055 68.25851047 0.03693688 C80.00431265 0.05316518 91.75009929 0.05839714 103.49591146 0.06091286 C122.55098128 0.06529417 141.60603401 0.07861506 160.66109455 0.09751809 C179.17541659 0.11586563 197.689734 0.13002764 216.2040633 0.13853371 C217.91482359 0.13932188 217.91482359 0.13932188 219.6601447 0.14012598 C225.38151862 0.14273598 231.10289258 0.14526341 236.82426655 0.14774978 C284.31692546 0.16849584 331.80956581 0.2037332 379.30220783 0.24839699 C378.62521317 3.91459514 377.66724404 6.78909902 375.98970783 10.12339699 C369.92211482 23.25527695 368.45153334 36.91956021 366.30220783 51.24839699 C240.24220783 51.24839699 114.18220783 51.24839699 -15.69779217 51.24839699 C-15.69779217 43.40537132 -14.21809924 1.30911978 0 0 Z " fill="#A9CC54" transform="translate(16.697792172431946,204.7516030073166)"/>
<path d="M0 0 C1.18843506 -0.03915527 1.18843506 -0.03915527 2.40087891 -0.07910156 C9.53727687 -0.10000752 14.61857901 2.10240914 20 6.75 C27.30329039 15.27050546 28.06463024 22.52457775 27.25 33.375 C25.37926471 40.11574728 20.87676968 44.23693165 15.5625 48.5625 C10.27678503 51.45468367 4.85295351 52.07325246 -1.0859375 52.76171875 C-16.40580561 54.60483754 -28.248412 60.25503296 -38.1875 72.21875 C-46.1479002 83.20410227 -49.07456128 95.96749637 -47.75 109.375 C-44.88446665 123.04020475 -38.35759616 135.19191542 -26.8515625 143.45703125 C-17.78159382 148.99460853 -9.55836368 151.25379901 0.875 152.3125 C10.00157538 153.24744163 16.08382493 155.18112908 22.25 162.375 C27.83257269 170.12857318 27.94527404 177.11433602 27.25 186.375 C25.04732377 194.31181707 19.09649575 199.2075678 12.25 203.375 C-5.0778354 209.15094513 -27.85235319 202.09513707 -43.63427734 194.46386719 C-52.14299856 190.12961777 -59.66128655 184.78411703 -66.75 178.375 C-68.12285156 177.14330078 -68.12285156 177.14330078 -69.5234375 175.88671875 C-80.3266126 165.67363305 -88.46756873 153.28241793 -93.75 139.375 C-94.02360352 138.67826172 -94.29720703 137.98152344 -94.57910156 137.26367188 C-103.42520506 113.98655174 -102.3983458 87.04019365 -93.375 64 C-81.2971526 37.13593942 -61.79788182 17.91497191 -34.75 6.375 C-23.37954377 2.07921104 -12.10299291 0.22893135 0 0 Z " fill="#DCF3A3" transform="translate(483.75,153.625)"/>
</svg>
