<svg xmlns="http://www.w3.org/2000/svg" viewBox="0 0 32 32">
  <!-- Cloudflare orange cloud -->
  <path d="M22.5 18.2c.1-.3.1-.6.1-.9 0-2.5-2-4.5-4.5-4.5-.9 0-1.8.3-2.5.7C15 12 13.4 11 11.5 11 8.5 11 6 13.5 6 16.5c0 .2 0 .5.1.7C4.3 17.7 3 19.2 3 21c0 2 1.6 3.5 3.5 3.5h15c1.9 0 3.5-1.6 3.5-3.5 0-1.4-.8-2.6-2-3.1-.2-.1-.3-.4-.5-.7z" fill="#f6821f"/>
  <path d="M22.5 18.2c.1-.3.1-.6.1-.9 0-2.5-2-4.5-4.5-4.5-.9 0-1.8.3-2.5.7-.1-.1-.1-.1-.2-.2.5.8.8 1.7.8 2.7 0 .4-.1.8-.2 1.2.5.2.9.6 1.2 1 .3-.1.6-.1.9-.1 1.5 0 2.7.9 3.2 2.2.7-.5 1.2-1.3 1.2-2.2 0-.3-.1-.6-.2-.9z" fill="#fbad41"/>
</svg>
