<?xml version="1.0" standalone="no"?>
<!DOCTYPE svg PUBLIC "-//W3C//DTD SVG 20010904//EN"
 "http://www.w3.org/TR/2001/REC-SVG-20010904/DTD/svg10.dtd">
<svg version="1.0" xmlns="http://www.w3.org/2000/svg"
 width="1300.000000pt" height="1300.000000pt" viewBox="0 0 1300.000000 1300.000000"
 preserveAspectRatio="xMidYMid meet">

<g transform="translate(0.000000,1300.000000) scale(0.100000,-0.100000)"
fill="#a30000" stroke="none">
<path d="M6270 11890 c-416 -43 -815 -184 -1143 -403 -167 -112 -259 -188
-402 -331 -196 -197 -350 -415 -475 -671 -382 -779 -318 -1737 163 -2458 112
-167 188 -259 331 -402 197 -196 415 -350 671 -475 779 -382 1737 -318 2458
163 167 112 259 188 402 331 196 197 350 415 475 671 382 779 318 1737 -163
2458 -112 167 -188 259 -331 402 -382 380 -856 616 -1406 700 -124 19 -459 27
-580 15z"/>
<path d="M6270 6090 c-416 -43 -815 -184 -1143 -403 -167 -112 -259 -188 -402
-331 -196 -197 -350 -415 -475 -671 -382 -779 -318 -1737 163 -2458 112 -167
188 -259 331 -402 197 -196 415 -350 671 -475 779 -382 1737 -318 2458 163
167 112 259 188 402 331 196 197 350 415 475 671 382 779 318 1737 -163 2458
-112 167 -188 259 -331 402 -382 380 -856 616 -1406 700 -124 19 -459 27 -580
15z"/>
</g>
</svg>
