<?xml version="1.0" encoding="UTF-8"?>
<svg id="Capa_2" data-name="Capa 2" xmlns="http://www.w3.org/2000/svg" viewBox="0 0 200.06 100">
  <defs>
    <style>
      .cls-1 {
        fill: #fff;
      }

      .cls-2 {
        fill: none;
      }
    </style>
  </defs>
  <g id="Capa_1-2" data-name="Capa 1">
    <g>
      <g>
        <path class="cls-1" d="m100.37,64.39c0,1.27,0,2.53,0,3.8,0-1.27,0-2.53,0-3.8,0-1.19,0-2.38,0-3.57,0,1.19,0,2.38,0,3.57Z"/>
        <path class="cls-1" d="m100.91,12.74c-20.6.03-37.19,16.62-37.27,37.12-.07,20.67,16.6,37.35,37.17,37.39,20.6.05,37.32-16.6,37.34-37.22.02-20.57-16.6-37.24-37.24-37.29Zm-8.53,44.01c-.04.32-.08.63-.14.95-.04.25-.06.26-.29.22-.23-.03-.46-.05-.68-.03-.73.04-1.14.46-1.18,1.19-.02.3,0,.61,0,.91,0,.14.05.19.2.19.29,0,.58,0,.87,0,.14,0,.27,0,.41,0,.1,0,.18.05.18.16,0,.37,0,.73,0,1.1,0,.09-.07.14-.15.14-.3,0-.61,0-.91.01-.66,0-.6-.06-.6.58,0,1.97,0,3.94,0,5.9,0,.52.02.5-.5.5-.44,0-.88,0-1.33,0-.18,0-.22-.05-.23-.21,0-.12,0-.24,0-.37,0-.98,0-1.95,0-2.93,0-1.02,0-2.04,0-3.07,0-.4,0-.4-.41-.41-.26,0-.52,0-.78,0-.14,0-.19-.05-.19-.2,0-.34,0-.67,0-1.01,0-.14.05-.19.2-.2.32,0,.64,0,.96-.01.18,0,.21-.04.22-.22,0-.23,0-.46,0-.69,0-.31.03-.61.1-.91.27-1.1,1-1.71,2.07-1.95.65-.14,1.3-.11,1.95.02.23.05.26.09.24.3Zm3.27,11.26c0,.14,0,.27,0,.41,0,.11-.07.16-.18.16-.56,0-1.13,0-1.69,0-.11,0-.16-.07-.17-.18,0-.14,0-.27,0-.41,0-1.83,0-3.66,0-5.49v-5.49c0-.54-.03-.51.49-.51.44,0,.88,0,1.33,0,.2,0,.23.04.24.25,0,.11,0,.21,0,.32,0,3.65,0,7.29,0,10.94Zm4.73.17c0,.4,0,.41-.4.41-.46,0-.91,0-1.37,0-.23,0-.25-.03-.26-.27,0-.09,0-.18,0-.27,0-2.44,0-4.88,0-7.32,0-.55-.05-.53.52-.53.41,0,.82,0,1.24,0,.25,0,.28.03.29.3,0,.11,0,.21,0,.32,0,1.19,0,2.38,0,3.57,0,1.27,0,2.53,0,3.8Zm-2.03-10.21c0-.43,0-.85,0-1.28,0-.14.05-.18.2-.18.55,0,1.09,0,1.64,0,.11,0,.18.05.18.16,0,.44,0,.88,0,1.32,0,.11-.07.16-.18.16-.29,0-.58,0-.87,0h0c-.26,0-.52,0-.78,0-.15,0-.2-.05-.2-.18Zm12.45,7.89c-.11.54-.31,1.05-.63,1.51-.53.77-1.26,1.21-2.2,1.34-.4.05-.79.05-1.18,0-.53-.07-1-.27-1.42-.59-.08-.07-.16-.14-.25-.2-.04-.03-.09,0-.1.05-.01.14-.02.27-.02.41,0,1.01,0,2.01,0,3.02,0,.41,0,.41-.4.41-.47,0-.95,0-1.42,0-.2,0-.23-.04-.24-.25,0-.11,0-.21,0-.32v-10.48c0-.61-.04-.56.58-.56.31,0,.61,0,.92,0,.2,0,.25.04.29.22.05.23.09.47.14.7.17.01.21-.1.28-.18.56-.57,1.25-.86,2.05-.88.31,0,.61,0,.91.05.8.16,1.44.56,1.92,1.22.49.67.74,1.43.84,2.25.08.76.09,1.52-.06,2.28Zm4.36,2.2c0,.12,0,.24,0,.37,0,.11-.08.16-.18.16-.56,0-1.13,0-1.69,0-.11,0-.16-.07-.17-.18,0-.12,0-.24,0-.37,0-1.23,0-2.47,0-3.7s0-2.38,0-3.57c0-.12,0-.24,0-.37,0-.15.05-.21.19-.21.56,0,1.13,0,1.69,0,.11,0,.16.07.17.18,0,.12,0,.24,0,.37,0,2.44,0,4.88,0,7.32Zm-1.88-9.91c-.11,0-.17-.07-.17-.17,0-.42,0-.85,0-1.27,0-.14.05-.19.19-.19.55,0,1.09,0,1.64,0,.17,0,.21.04.21.22,0,.41,0,.82,0,1.23,0,.14-.05.19-.2.19-.27,0-.55,0-.82,0h0c-.29,0-.58,0-.86,0Zm7.19-6.49c-.2-.1-.4-.23-.59-.35-.6-.39-1.2-.78-1.8-1.17-.97-.64-2.02-1.12-3.07-1.61-.08-.04-.16-.08-.25-.11-.51-.16-.72-.57-.87-1.04-.11-.35-.02-.66.21-.94.11-.13.24-.24.38-.33.18-.12.34-.14.55-.04,1.84.87,3.55,1.95,5.02,3.38.33.32.61.68.81,1.1.11.23.2.48.2.79,0,.42-.17.54-.59.33Zm.09-4.26c-1,.23-1.94.1-2.78-.54-.17-.13-.34-.26-.5-.4-.54-.43-1.16-.67-1.85-.72-.53-.04-.99.12-1.37.51-.35.37-.43.79-.28,1.27.07.23.2.44.35.64.24.33.54.62.85.89.55.47,1.14.87,1.76,1.24.67.4,1.3.85,1.88,1.38.35.32.67.66.95,1.05.18.25.31.53.37.83.04.2.02.39-.06.58-.07.14-.18.21-.33.2-.15-.02-.3-.05-.45-.09-.4-.12-.76-.31-1.13-.5-1.05-.56-2.06-1.2-3.05-1.85-.64-.42-1.27-.85-1.91-1.27-1.95-1.26-4.08-2.06-6.37-2.43-1.01-.16-2.03-.26-3.05-.29-1.34-.04-2.69-.02-4.03.09-2.46.2-4.87.64-7.18,1.53-1.2.46-2.35,1.03-3.45,1.68-.93.55-1.85,1.13-2.74,1.75-.59.41-1.19.8-1.81,1.16-.35.19-.7.38-1.08.48-.16.04-.32.08-.49.03-.32-.1-.44-.31-.33-.63.1-.29.3-.53.51-.75.32-.35.65-.69.97-1.03,1.19-1.27,2.34-2.58,3.56-3.82.29-.29.56-.6.78-.96.1-.17.19-.35.18-.56,0-.18-.11-.28-.29-.27-.14,0-.27.05-.39.11-.3.15-.6.3-.89.47-.64.39-1.26.8-1.9,1.2-1.11.7-2.21,1.41-3.32,2.11-.22.14-.44.27-.69.36-.18.07-.35.09-.54.08-.31-.03-.46-.22-.44-.53.01-.16.07-.3.14-.43.12-.25.28-.47.46-.68,1.96-2.26,4.1-4.32,6.56-6.02,2.33-1.61,4.84-2.84,7.58-3.56,1.51-.4,3.04-.64,4.61-.71.7-.03,1.4-.09,2.1-.07,2.31,0,4.6.21,6.86.72,1.28.29,2.54.66,3.73,1.22.19.09.33.09.5-.04.5-.38.58-.31.03-.73-.71-.54-1.5-.94-2.32-1.28-1.28-.52-2.61-.86-3.96-1.1-1.95-.34-3.91-.43-5.88-.4-.73.01-1.46.02-2.19.1-.3.03-.61.03-.91-.05-.46-.11-.63-.34-.65-.81,0-.29.08-.54.26-.76.15-.19.34-.35.53-.5.52-.38,1.05-.73,1.62-1.03.78-.41,1.61-.64,2.49-.69.8-.04,1.58.04,2.35.26,3.87,1.09,7.4,2.84,10.44,5.5.15.13.29.19.49.13.19-.05.39-.06.59-.07.36-.02.37-.03.18-.35-.52-.89-1.16-1.68-1.87-2.42-1.39-1.44-2.99-2.61-4.72-3.59-.5-.29-1.02-.54-1.54-.82-.34-.18-.67-.36-1-.55-.09-.05-.18-.12-.26-.18-.89-.69-1.01-1.84-.28-2.7.33-.38.76-.56,1.25-.59.61-.05,1.18.09,1.72.37.6.31,1.16.67,1.71,1.06,2.19,1.59,3.89,3.6,5.21,5.95.66,1.19,1.2,2.44,1.62,3.73.03.09.06.17.08.26.03.11.09.19.19.24.03.01.06.03.08.04,2.01,1.09,3.24,2.77,3.79,4.97.06.22.1.45.14.67.01.07.02.15.02.23.05.88-.37,1.47-1.23,1.67Z"/>
        <path class="cls-1" d="m117.48,41.32c-.77,0-1.44.66-1.43,1.43,0,.85.65,1.45,1.44,1.47.79.02,1.46-.66,1.45-1.45,0-.8-.67-1.46-1.46-1.45Z"/>
        <path class="cls-1" d="m106.37,61.64c-.46.06-.84.27-1.15.61-.15.16-.23.34-.23.57.01.55,0,1.1,0,1.64s.01,1.07,0,1.6c0,.25.09.44.26.61.22.22.48.37.77.47.26.09.54.1.81.1.9-.01,1.49-.42,1.82-1.26.03-.08.06-.17.09-.26.21-.91.2-1.82-.11-2.7-.38-1.09-1.12-1.53-2.26-1.38Z"/>
      </g>
      <rect class="cls-2" width="200.06" height="100"/>
    </g>
  </g>
</svg>