<svg data-name="Capa 1" xmlns="http://www.w3.org/2000/svg" viewBox="0 0 1242 248.82"><path d="M141.33 16.96c-62.76 0-113.64 50.88-113.64 113.64s50.88 113.64 113.64 113.64 113.64-50.88 113.64-113.64S204.09 16.96 141.33 16.96zm34.95 177.32l-69.89-46.59V66.93l69.89 46.16v81.19zm154.17-90V78.96h78.7v25.32h-78.7zm59.92 89.89c-13.37 0-23.77-3.41-31.23-10.23-7.46-6.82-11.18-16.99-11.18-30.49v-99.6h32.92v99.17c0 4.78 1.27 8.48 3.8 11.08 2.53 2.6 5.98 3.9 10.34 3.9 5.2 0 9.63-1.4 13.29-4.22l8.86 23.21c-3.38 2.39-7.42 4.19-12.13 5.38-4.71 1.19-9.6 1.79-14.66 1.79zm95.8 0c-12.1 0-22.82-2.53-32.18-7.6-9.36-5.06-16.74-11.99-22.15-20.78-5.42-8.79-8.12-18.81-8.12-30.07s2.71-21.49 8.12-30.28c5.41-8.79 12.8-15.68 22.15-20.68 9.35-4.99 20.08-7.49 32.18-7.49s22.65 2.5 32.07 7.49c9.42 4.99 16.81 11.85 22.16 20.57 5.34 8.72 8.02 18.85 8.02 30.38s-2.67 21.28-8.02 30.07-12.73 15.72-22.16 20.78c-9.43 5.06-20.12 7.6-32.07 7.6zm0-27.01c5.49 0 10.41-1.27 14.77-3.8 4.36-2.53 7.81-6.15 10.34-10.87 2.53-4.71 3.8-10.3 3.8-16.77s-1.27-12.24-3.8-16.88c-2.53-4.64-5.98-8.23-10.34-10.76-4.36-2.53-9.28-3.8-14.77-3.8s-10.41 1.27-14.77 3.8c-4.36 2.53-7.84 6.12-10.44 10.76-2.6 4.64-3.9 10.27-3.9 16.88s1.3 12.06 3.9 16.77c2.6 4.71 6.08 8.33 10.44 10.87 4.36 2.53 9.28 3.8 14.77 3.8zm132.09 27.01c-9.43 0-17.83-1.83-25.21-5.49-7.39-3.66-13.12-9.25-17.2-16.77s-6.12-17.12-6.12-28.8V78.96h32.92v59.29c0 9.43 2 16.35 6.01 20.78s9.67 6.65 16.99 6.65c5.06 0 9.56-1.09 13.5-3.27 3.94-2.18 7.03-5.55 9.28-10.13 2.25-4.57 3.38-10.3 3.38-17.2V78.95h32.92v113.52H653.5v-31.23l5.7 9.07c-3.8 7.88-9.39 13.82-16.77 17.83-7.39 4.01-15.44 6.01-24.16 6.01zm97.06-1.69V78.96h31.44v32.07l-4.43-9.28c3.38-8.02 8.79-14.1 16.25-18.25 7.45-4.15 16.53-6.22 27.22-6.22v30.38c-1.41-.14-2.67-.24-3.8-.32-1.13-.07-2.32-.11-3.59-.11-9 0-16.28 2.57-21.84 7.7-5.56 5.14-8.33 13.12-8.33 23.95v53.59h-32.92zm124.91 0L792.54 78.96h33.97l39.67 97.69H849.3l41.15-97.69h31.65l-47.9 113.52h-33.97zM952.05 63.14c-6.05 0-10.97-1.76-14.77-5.28-3.8-3.51-5.7-7.88-5.7-13.08s1.9-9.56 5.7-13.08c3.8-3.51 8.72-5.27 14.77-5.27s10.97 1.66 14.77 4.96c3.8 3.31 5.7 7.56 5.7 12.77 0 5.49-1.87 10.02-5.59 13.61-3.73 3.59-8.69 5.38-14.88 5.38zm-16.46 129.34V78.96h32.92v113.52h-32.92zm101.71 1.69c-9.71 0-19.03-1.16-27.96-3.48-8.93-2.32-16-5.24-21.21-8.76l10.97-23.63c5.2 3.24 11.36 5.88 18.46 7.91 7.1 2.04 14.1 3.06 20.99 3.06 7.6 0 12.98-.91 16.14-2.74 3.17-1.83 4.75-4.36 4.75-7.6 0-2.67-1.23-4.67-3.69-6.01-2.46-1.34-5.73-2.35-9.81-3.06-4.08-.7-8.55-1.4-13.4-2.11-4.85-.7-9.74-1.65-14.67-2.85-4.93-1.19-9.43-2.99-13.5-5.38-4.08-2.39-7.35-5.62-9.81-9.71-2.46-4.08-3.69-9.35-3.69-15.83 0-7.17 2.07-13.5 6.22-18.99 4.15-5.49 10.16-9.81 18.04-12.98 7.88-3.17 17.3-4.75 28.27-4.75 7.73 0 15.61.84 23.63 2.53s14.7 4.15 20.04 7.38l-10.97 23.42c-5.49-3.23-11.01-5.45-16.56-6.65-5.56-1.19-10.94-1.79-16.14-1.79-7.32 0-12.66.99-16.04 2.95-3.38 1.97-5.06 4.5-5.06 7.6 0 2.82 1.23 4.93 3.69 6.33 2.46 1.41 5.73 2.53 9.81 3.38 4.08.84 8.55 1.58 13.4 2.22 4.85.63 9.74 1.58 14.66 2.85s9.39 3.06 13.4 5.38 7.28 5.49 9.81 9.5c2.53 4.01 3.8 9.25 3.8 15.72 0 7.04-2.11 13.26-6.33 18.67-4.22 5.42-10.31 9.67-18.25 12.77-7.95 3.09-17.62 4.64-29.01 4.64zm127.86 0c-12.1 0-22.82-2.53-32.18-7.6-9.36-5.06-16.74-11.99-22.16-20.78-5.42-8.79-8.12-18.81-8.12-30.07s2.71-21.49 8.12-30.28c5.41-8.79 12.8-15.68 22.16-20.68 9.35-4.99 20.08-7.49 32.18-7.49s22.65 2.5 32.07 7.49c9.42 4.99 16.81 11.85 22.16 20.57 5.34 8.72 8.02 18.85 8.02 30.38s-2.67 21.28-8.02 30.07-12.73 15.72-22.16 20.78c-9.43 5.06-20.12 7.6-32.07 7.6zm0-27.01c5.49 0 10.41-1.27 14.77-3.8 4.36-2.53 7.81-6.15 10.34-10.87 2.53-4.71 3.8-10.3 3.8-16.77s-1.27-12.24-3.8-16.88c-2.53-4.64-5.98-8.23-10.34-10.76-4.36-2.53-9.28-3.8-14.77-3.8s-10.41 1.27-14.77 3.8c-4.36 2.53-7.84 6.12-10.44 10.76-2.6 4.64-3.9 10.27-3.9 16.88s1.3 12.06 3.9 16.77c2.6 4.71 6.08 8.33 10.44 10.87 4.36 2.53 9.28 3.8 14.77 3.8z" fill="#0d6efd"/></svg>